<svg xmlns="http://www.w3.org/2000/svg" viewBox="0 0 800 800" role="img" aria-label="404 error illustration">
  <defs>
    <linearGradient id="glow" x1="160" y1="160" x2="640" y2="640" gradientUnits="userSpaceOnUse">
      <stop offset="0" stop-color="#22d3ee" stop-opacity="0.9" />
      <stop offset="0.5" stop-color="#60a5fa" stop-opacity="0.6" />
      <stop offset="1" stop-color="#f472b6" stop-opacity="0.85" />
    </linearGradient>
    <filter id="softGlow" x="-20%" y="-20%" width="140%" height="140%">
      <feGaussianBlur stdDeviation="18" result="blur" />
      <feColorMatrix in="blur" type="matrix" values="1 0 0 0 0  0 1 0 0 0  0 0 1 0 0  0 0 0 0.75 0" />
    </filter>
  </defs>

  <!-- Round dark background -->
  <circle cx="400" cy="400" r="390" fill="#0f172a" />

  <!-- Inner glow circles -->
  <circle cx="400" cy="400" r="320" fill="none" stroke="url(#glow)" stroke-width="12" opacity="0.25" filter="url(#softGlow)" />
  <circle cx="400" cy="400" r="210" fill="none" stroke="url(#glow)" stroke-width="22" opacity="0.45" />
  <circle cx="400" cy="400" r="70" fill="#ffffff" opacity="0.08" />

  <!-- 404 text -->
  <text x="400" y="440" fill="#e5e7eb" font-family="Arial, Helvetica, sans-serif" font-weight="800" font-size="260" letter-spacing="16" text-anchor="middle">404</text>

  <!-- Subtitle -->
  <text x="400" y="520" fill="#94a3b8" font-family="Arial, Helvetica, sans-serif" font-size="38" font-weight="600" text-anchor="middle" letter-spacing="5">DEVELOPER FOUND!</text>

  <!-- Horizontal lines -->
  <path d="M104 400c0-10 7-17 17-17h100c10 0 17 7 17 17s-7 17-17 17h-100c-10 0-17-7-17-17Z" fill="#22d3ee" opacity="0.45" />
  <path d="M562 400c0-10 7-17 17-17h100c10 0 17 7 17 17s-7 17-17 17h-100c-10 0-17-7-17-17Z" fill="#22d3ee" opacity="0.45" />

  <!-- Outer ring border -->
  <circle cx="400" cy="400" r="390" fill="none" stroke="url(#glow)" stroke-width="6" opacity="0.5" />
</svg>
